<svg xmlns="http://www.w3.org/2000/svg" viewBox="0 0 36 49"><defs><style>.cls-1{fill:none;}.cls-2{fill:#eee;}</style></defs><title>cart_1</title><g id="圖層_2" data-name="圖層 2"><g id="圖層_1-2" data-name="圖層 1"><rect class="cls-1" width="36" height="49"/><path class="cls-2" d="M32.08,13l2.84,35H1.08L3.92,13H32m1-1H3L0,49H36L33,12Z"/><path class="cls-2" d="M27,16H26V9a9.26,9.26,0,0,0-2.25-5.93A7.08,7.08,0,0,0,18.5,1.13a7.07,7.07,0,0,0-5.26,1.95A9.22,9.22,0,0,0,11,9v7H10V9a10.11,10.11,0,0,1,2.53-6.63,8,8,0,0,1,6-2.25,8,8,0,0,1,6,2.25A10.12,10.12,0,0,1,27,9Z"/><path id="Amazon" class="cls-2" d="M19.83,26.89c-.48,0-1,.08-1.6.15a8.26,8.26,0,0,0-2.42.6,3.59,3.59,0,0,0-2.31,3.51,3,3,0,0,0,3.2,3.32,6.12,6.12,0,0,0,1.53-.19,4.65,4.65,0,0,0,2-1.38,5.78,5.78,0,0,0,1.23,1.42.52.52,0,0,0,.52,0c.45-.37,1.23-1,1.64-1.42a.41.41,0,0,0,0-.56,2.79,2.79,0,0,1-.82-2V27c0-1.42.11-2.72-.93-3.69a5,5,0,0,0-3.24-1.08h-.45c-1.9.11-3.91.93-4.36,3.28a.35.35,0,0,0,.3.45l2.08.26a.48.48,0,0,0,.37-.41,1.71,1.71,0,0,1,1.6-1.3h.15a1.47,1.47,0,0,1,1.19.56,2.82,2.82,0,0,1,.26,1.57v.3Zm0,2.16a4,4,0,0,1-.41,2.27,1.8,1.8,0,0,1-1.19,1c-.07,0-.18,0-.3,0-.82,0-1.3-.63-1.3-1.57a2,2,0,0,1,1.6-2,7.34,7.34,0,0,1,1.6-.15v.45Zm6.86,8.86A4.36,4.36,0,0,0,28,35V34.9a.65.65,0,0,0-.08-.34,3.83,3.83,0,0,0-2.67-.08,3.21,3.21,0,0,0-.87.43c-.2.14-.16.32,0,.3s.51-.06.83-.1C26,35,26.79,35,27,35.28s-.32,1.84-.59,2.49c-.08.2.1.28.28.14ZM8.1,35a14.69,14.69,0,0,0,17.15,1.84,7.46,7.46,0,0,0,.83-.55c.36-.26,0-.67-.32-.51l-.5.2a19.49,19.49,0,0,1-7,1.34,19.84,19.84,0,0,1-9.89-2.63c-.26-.14-.45.12-.22.3Z"/></g></g></svg>