<svg id="圖層_1" data-name="圖層 1" xmlns="http://www.w3.org/2000/svg" viewBox="0 0 959 103">
<defs>
<style>.cls-1,.cls-2,.cls-4{fill:none;stroke-miterlimit:10;stroke-width:3px;}.cls-1{stroke:#c6c6c6;}.cls-2{stroke:#999;}.cls-3{fill:#787878;}.cls-4{stroke:#787878;}</style>
</defs>
<title>cuber</title
>
<path class="cls-1" d="M45,383.5H211.5c47.5,0,107-28,167-28s152,36,152,36,95,18,167,18,114-28,163.27-28,118.23,2,118.23,2" transform="translate(-32.5 -332)"/>
<path class="cls-2" d="M45,384.5H211.5c47.5,0,94,34,133,34,189,0,210-70,349-70,72,0,118,34,167.27,34s118.23,2,118.23,2" transform="translate(-32.5 -332)"/>
<circle class="cls-3" cx="12.5" cy="52" r="12.5"/>
<circle class="cls-3" cx="946.5" cy="52" r="12.5"/>
<path class="cls-4" d="M45,383.5H165.5c47.5,0,128-50,188-50,76,0,230,100,340.5,100,72,0,117.55-50,166.77-50H979" transform="translate(-60.5 -332)"/>
</svg>