<?xml version="1.0" encoding="utf-8"?>
<!-- Generator: Adobe Illustrator 21.1.0, SVG Export Plug-In . SVG Version: 6.00 Build 0)  -->
<svg version="1.1" id="圖層_1" xmlns="http://www.w3.org/2000/svg" xmlns:xlink="http://www.w3.org/1999/xlink" x="0px" y="0px"
	 viewBox="0 0 1024 768" style="enable-background:new 0 0 1024 768;" xml:space="preserve">
<style type="text/css">
	.st0{fill:none;stroke:#C6C6C6;stroke-width:3;stroke-miterlimit:10;}
	.st1{fill:none;stroke:#999999;stroke-width:3;stroke-miterlimit:10;}
	.st2{fill:#787878;}
	.st3{fill:none;stroke:#787878;stroke-width:3;stroke-miterlimit:10;}
</style>
<g>
	<path class="st0" d="M45,383.5c0,0,119,0,166.5,0s107-28,167-28s152,36,152,36s95,18,167,18s114-28,163.3-28
		c49.2,0,118.2,2,118.2,2"/>
</g>
<g>
	<path class="st1" d="M45,384.5c0,0,119,0,166.5,0s112.5,34,172.5,34s172.3-34,172.3-34s111.7-36,183.7-36s71.5,34,120.8,34
		c49.2,0,118.2,2,118.2,2"/>
</g>
<circle class="st2" cx="45" cy="384" r="12.5"/>
<circle class="st2" cx="979" cy="384" r="12.5"/>
<g>
	<path class="st3" d="M45,383.5c0,0,73,0,120.5,0s112.5-50,172.5-50s172.3,50,172.3,50s111.7,50,183.7,50s117.5-50,166.8-50
		c49.2,0,118.2,0,118.2,0"/>
</g>
</svg>
