<svg xmlns="http://www.w3.org/2000/svg" viewBox="0 0 78.67 78.67"><defs><style>.cls-1{fill:#4d4d4d;}</style></defs><title>developer</title><g id="圖層_2" data-name="圖層 2"><g id="圖層_2-2" data-name="圖層 2"><path class="cls-1" d="M24.37,59.37a1.14,1.14,0,0,1-.78-.32l-4.43-4.45a1.09,1.09,0,0,1,0-1.55L31.28,40.92a1.1,1.1,0,0,1,1.55,1.55L21.49,53.82l2.89,2.9,11-11a1.1,1.1,0,1,1,1.55,1.55L25.14,59A1.1,1.1,0,0,1,24.37,59.37Z"/><path class="cls-1" d="M53.06,60.56h0a4.64,4.64,0,0,1-.64,0L52,60.43a13.2,13.2,0,0,1-6-3.68c-2.47-2.48-3.89-5.25-3.78-7.26L32,37.64a1.1,1.1,0,0,1,.06-1.49l2.63-2.6a1.1,1.1,0,0,1,1.51,0L48,44.26c2,.14,4.5,1.57,6.71,3.81a13.13,13.13,0,0,1,3.66,5.87l.09.45a3.17,3.17,0,0,1-.78,2.84l-2.5,2.53A3,3,0,0,1,53.06,60.56ZM34.36,37l9.86,11.45a1.09,1.09,0,0,1,.24,1c-.25,1.05.76,3.45,3.11,5.81a11.2,11.2,0,0,0,4.86,3.08l.36.07.28,0h0a.9.9,0,0,0,.63-.18l2.5-2.52c.2-.19.19-.62.15-1l-.06-.32a11.16,11.16,0,0,0-3.07-4.78c-2.19-2.23-4.34-3.17-5.51-3.18a1.3,1.3,0,0,1-.82-.28L35.52,35.83Z"/><path class="cls-1" d="M26.53,31a1.09,1.09,0,0,1-.65-.21l-2.32-1.72a1.16,1.16,0,0,1-.2-.19l-2.65-3.25a1.09,1.09,0,0,1,.08-1.47l1.93-1.92a1.09,1.09,0,0,1,1.47-.07l3.21,2.64.11.11.08.1,1.75,2.33a1.09,1.09,0,0,1-.11,1.44l-1.94,1.9A1.1,1.1,0,0,1,26.53,31ZM25,27.39l1.46,1.08L27,27.9l-1.11-1.46h0L23.56,24.5,23,25Z"/><path class="cls-1" d="M34.16,36.73a1.09,1.09,0,0,1-.77-.32l-6.67-6.67a1.1,1.1,0,1,1,1.55-1.55l6.67,6.67a1.1,1.1,0,0,1-.77,1.87Z"/><path class="cls-1" d="M44.84,38.89A1.1,1.1,0,0,1,44.07,37l1.46-1.46a1.1,1.1,0,0,1,1.21-.23A7.4,7.4,0,0,0,57,27.52l-3.63,3.63a1.1,1.1,0,0,1-1.55,0l-4.77-4.77a1.1,1.1,0,0,1,0-1.55l3.63-3.63a7.38,7.38,0,0,0-6.26,2.1,7.46,7.46,0,0,0-1.57,8.16,1.1,1.1,0,0,1-.23,1.21L41,34.33a1.1,1.1,0,1,1-1.55-1.55l1.17-1.17a9.6,9.6,0,0,1,11.76-12.3c.29.08.58.19.86.31a1.1,1.1,0,0,1,.37,1.79L49.38,25.6l3.22,3.22,4.19-4.19a1.1,1.1,0,0,1,1.79.37c.11.28.2.52.27.75l0,.11A9.6,9.6,0,0,1,46.57,37.61l-1,1A1.09,1.09,0,0,1,44.84,38.89Z"/><path class="cls-1" d="M39.33,78.67A39.33,39.33,0,1,1,78.67,39.33,39.38,39.38,0,0,1,39.33,78.67ZM39.33,2A37.33,37.33,0,1,0,76.67,39.33,37.38,37.38,0,0,0,39.33,2Z"/></g></g></svg>