<svg xmlns="http://www.w3.org/2000/svg" viewBox="0 0 103 103"><defs><style>.cls-1{fill:#040000;}</style></defs><title>faq</title><g id="圖層_2" data-name="圖層 2"><g id="圖層_2-2" data-name="圖層 2"><path class="cls-1" d="M53.85,64.84H33.39a6.59,6.59,0,0,1-6.09-4.64L22.27,42a4.07,4.07,0,0,1,4.07-5.35H63.21a1.34,1.34,0,0,1,0,2.68H26.34a1.42,1.42,0,0,0-1.49,2l5,18.22a4,4,0,0,0,3.51,2.67H53.85a4.94,4.94,0,0,0,4.06-2.67L69.36,32.78a7.58,7.58,0,0,1,6.52-4.3h7.55a1.34,1.34,0,1,1,0,2.68H75.88a4.93,4.93,0,0,0-4.06,2.67L60.36,60.55A7.58,7.58,0,0,1,53.85,64.84Z"/><path class="cls-1" d="M64.88,73.27H30.3a1.34,1.34,0,1,1,0-2.68H65.15L65,70.4l-4.83-4.34a1.34,1.34,0,1,1,1.79-2l4.83,4.34c1.61,1.44,1.47,2.66,1.23,3.26S67,73.27,64.88,73.27Z"/><path class="cls-1" d="M33.87,81.58A4.91,4.91,0,0,1,29,76.68a1.34,1.34,0,1,1,2.68,0,2.23,2.23,0,0,0,4.46,0,1.34,1.34,0,1,1,2.68,0A4.91,4.91,0,0,1,33.87,81.58Z"/><path class="cls-1" d="M62.9,81.58A4.91,4.91,0,0,1,58,76.68a1.34,1.34,0,1,1,2.68,0,2.23,2.23,0,1,0,4.46,0,1.34,1.34,0,1,1,2.67,0A4.91,4.91,0,0,1,62.9,81.58Z"/><path class="cls-1" d="M51.5,103A51.5,51.5,0,1,1,103,51.5,51.56,51.56,0,0,1,51.5,103Zm0-100A48.5,48.5,0,1,0,100,51.5,48.56,48.56,0,0,0,51.5,3Z"/></g></g></svg>