<svg xmlns="http://www.w3.org/2000/svg" viewBox="0 0 103 103"><defs><style>.cls-1{fill:#040000;}</style></defs><title>faq_1</title><g id="圖層_2" data-name="圖層 2"><g id="圖層_2-2" data-name="圖層 2"><path class="cls-1" d="M51.54,66.37A1.34,1.34,0,0,1,50.21,65V37.69a1.34,1.34,0,1,1,2.68,0V65A1.34,1.34,0,0,1,51.54,66.37Z"/><path class="cls-1" d="M35.06,50.3a6.65,6.65,0,1,1,6.65-6.65A6.65,6.65,0,0,1,35.06,50.3Zm0-10.62a4,4,0,1,0,4,4A4,4,0,0,0,35.06,39.68Z"/><path class="cls-1" d="M51.54,80.76a6.65,6.65,0,1,1,6.65-6.65A6.66,6.66,0,0,1,51.54,80.76Zm0-10.62a4,4,0,1,0,4,4A4,4,0,0,0,51.54,70.14Z"/><path class="cls-1" d="M64.23,61.85H38.85a5.14,5.14,0,0,1-5.13-5.13V52.63a1.34,1.34,0,0,1,2.68,0v4.09a2.46,2.46,0,0,0,2.45,2.45H64.23a2.46,2.46,0,0,0,2.45-2.45V52.63a1.34,1.34,0,0,1,2.68,0v4.09A5.14,5.14,0,0,1,64.23,61.85Z"/><path class="cls-1" d="M57.55,35.23h-12a1.34,1.34,0,0,1-1.16-2l6-10.36a1.39,1.39,0,0,1,2.32,0L58.57,33a1.34,1.34,0,0,1-1,2.21Zm-9.67-2.68h7.33L51.54,26.2Z"/><path class="cls-1" d="M71.35,50.21H64.7A3.24,3.24,0,0,1,61.46,47V40.33A3.24,3.24,0,0,1,64.7,37.1h6.65a3.24,3.24,0,0,1,3.23,3.23V47A3.24,3.24,0,0,1,71.35,50.21ZM64.7,39.77a.57.57,0,0,0-.56.56V47a.57.57,0,0,0,.56.56h6.65A.57.57,0,0,0,71.9,47V40.33a.57.57,0,0,0-.56-.56Z"/><path class="cls-1" d="M51.5,103A51.5,51.5,0,1,1,103,51.5,51.56,51.56,0,0,1,51.5,103Zm0-100A48.5,48.5,0,1,0,100,51.5,48.55,48.55,0,0,0,51.5,3Z"/></g></g></svg>