<svg xmlns="http://www.w3.org/2000/svg" viewBox="0 0 103 103"><defs><style>.cls-1{fill:#040000;}</style></defs><title>faq_2</title><g id="圖層_2" data-name="圖層 2"><g id="圖層_2-2" data-name="圖層 2"><path class="cls-1" d="M63.15,39.51a1.34,1.34,0,0,1-.91-.36.63.63,0,0,0-.52-.13,1.34,1.34,0,0,1-.37-2.65,3.28,3.28,0,0,1,2.72.82,1.34,1.34,0,0,1-.91,2.32Z"/><path class="cls-1" d="M42.89,65.28A22.28,22.28,0,0,1,39.69,65a3,3,0,0,1-2-1.21,3.31,3.31,0,0,1-.56-2.49,1.49,1.49,0,0,0-2.73-1.16,3.15,3.15,0,0,1-4.8.75,22.62,22.62,0,0,1-4.37-4.21A3.62,3.62,0,0,1,24.28,54a3.57,3.57,0,0,1,1.54-2.35,1.53,1.53,0,0,0,.62-1.42,1.38,1.38,0,0,0-.88-1.1,2,2,0,0,0-.92-.08,3.2,3.2,0,0,1-4-2.82,11.94,11.94,0,0,1-.2-1.51c0-.46,0-.92,0-1.39v-.12a1.17,1.17,0,0,1-.09-.52l.06-.77c0-.62.1-1.24.15-1.86a3.38,3.38,0,0,1,1.21-2.48A3.34,3.34,0,0,1,24.42,37a1.41,1.41,0,0,0,1.76-1.19,1.33,1.33,0,0,0-.57-1.42,3.89,3.89,0,0,1-1.67-2.54A3.63,3.63,0,0,1,25,29.18a51.09,51.09,0,0,1,3.92-4,3.29,3.29,0,0,1,2.53-1,3.46,3.46,0,0,1,2.44,1.49,1.43,1.43,0,0,0,1.61.58A1.47,1.47,0,0,0,36.58,25a2.86,2.86,0,0,0,0-.45c0-.13,0-.27,0-.4a3.11,3.11,0,0,1,2.73-3.48,22.79,22.79,0,0,1,6.59-.11A3.14,3.14,0,0,1,48,21.69a3.26,3.26,0,0,1,.63,2.48,1.5,1.5,0,0,0,2.73,1.16,3.15,3.15,0,0,1,4.8-.67,23,23,0,0,1,4.31,4.15c1.45,1.83,1.27,3.55-.55,5a1.34,1.34,0,0,0-.56,1.51,1.27,1.27,0,0,0,1,1.08,3.11,3.11,0,0,0,1,0A1.34,1.34,0,0,1,61.71,39a5.26,5.26,0,0,1-2,0,4,4,0,0,1-3-3.1,4,4,0,0,1,1.5-4.18c.63-.5.66-.56.12-1.24a20.37,20.37,0,0,0-3.81-3.67c-.57-.42-.7-.37-1.06.12A4.16,4.16,0,0,1,46,23.8a.63.63,0,0,0-.09-.47.47.47,0,0,0-.34-.17,20.16,20.16,0,0,0-5.83.09c-.47.08-.55.19-.52.66l0,.28a4.82,4.82,0,0,1,0,1,4.15,4.15,0,0,1-3.16,3.66,4.09,4.09,0,0,1-4.3-1.56c-.28-.36-.47-.46-.54-.47s-.22,0-.5.31A48.62,48.62,0,0,0,27,30.94c-.4.46-.43.65-.43.67h0s.07.22.66.69a4,4,0,0,1,1.54,4A4.11,4.11,0,0,1,24,39.65a.86.86,0,0,0-.6.07.94.94,0,0,0-.21.61c-.05.61-.1,1.23-.14,1.84l0,.28a1.34,1.34,0,0,1,.06.39v.56c0,.41,0,.82,0,1.24a8.58,8.58,0,0,0,.15,1.16c.11.6.16.76,1,.64a4.6,4.6,0,0,1,2.31.25,4,4,0,0,1,2.53,3.21,4.18,4.18,0,0,1-1.62,3.89c-.49.38-.53.57-.53.57s0,.2.39.71a19.89,19.89,0,0,0,3.85,3.71c.29.21.48.28.58.26s.25-.13.46-.42a4.16,4.16,0,0,1,7.54,3.17.63.63,0,0,0,.09.47.32.32,0,0,0,.23.14,19.27,19.27,0,0,0,3.15.21,1.32,1.32,0,0,1,1.36,1.31,1.34,1.34,0,0,1-1.31,1.36Z"/><path class="cls-1" d="M41.93,51.25h-.18a8.5,8.5,0,0,1-4.88-14.49,8.35,8.35,0,0,1,5.92-2.49h0a8.56,8.56,0,0,1,8.57,8.52,8.35,8.35,0,0,1-.24,2,1.34,1.34,0,0,1-2.6-.63,5.62,5.62,0,0,0,.16-1.34,6,6,0,0,0-5.9-5.84h0a5.68,5.68,0,0,0-4,1.71,5.82,5.82,0,0,0,3.35,9.94,1.34,1.34,0,0,1-.18,2.66Z"/><path class="cls-1" d="M64,84.68a2,2,0,0,1-.88-.21C50.42,78,45,67.33,45.41,49.94a1.94,1.94,0,0,1,1.69-1.88,26.56,26.56,0,0,0,8.5-3.12c1.2-.61,2.32-1.17,3.48-1.67l.66-.31c1.9-.9,3.23-1.48,4.24-1.48s2.39.59,4.29,1.48l.72.33c1.14.49,2.33,1.09,3.38,1.62A26.92,26.92,0,0,0,80.94,48a2,2,0,0,1,1.69,1.88c.45,17.42-5,28.08-17.72,34.57A2,2,0,0,1,64,84.68ZM48.07,50.61C47.79,66.32,52.72,76,64,81.91,75.31,76,80.24,66.31,80,50.57a30.25,30.25,0,0,1-8.79-3.29c-1.07-.54-2.17-1.09-3.27-1.56l-.76-.35A14,14,0,0,0,64,44.14a15.5,15.5,0,0,0-3.11,1.23l-.7.33c-1.12.48-2.21,1-3.26,1.57A30.3,30.3,0,0,1,48.07,50.61Z"/><path class="cls-1" d="M51.5,103A51.5,51.5,0,1,1,103,51.5,51.56,51.56,0,0,1,51.5,103Zm0-100A48.5,48.5,0,1,0,100,51.5,48.55,48.55,0,0,0,51.5,3Z"/></g></g></svg>