<svg xmlns="http://www.w3.org/2000/svg" viewBox="0 0 28 28"><defs><style>.cls-1{fill:#eee;}</style></defs><title>fb</title><g id="圖層_2" data-name="圖層 2"><g id="圖層_1-2" data-name="圖層 1"><path class="cls-1" d="M14,28c-4,0-4.55,0-6.12-.09a10.2,10.2,0,0,1-3.33-.63,6.42,6.42,0,0,1-2.32-1.51A6.42,6.42,0,0,1,.72,23.44a10.11,10.11,0,0,1-.63-3.33C0,18.54,0,18,0,14S0,9.46.09,7.89A10.1,10.1,0,0,1,.72,4.56,6.38,6.38,0,0,1,2.23,2.23,6.41,6.41,0,0,1,4.56.72,10.19,10.19,0,0,1,7.89.09C9.48,0,10,0,14,0s4.53,0,6.11.09a10.19,10.19,0,0,1,3.33.63,6.41,6.41,0,0,1,2.32,1.51,6.42,6.42,0,0,1,1.51,2.32,10.13,10.13,0,0,1,.63,3.33C28,9.46,28,10,28,14s0,4.54-.09,6.11a10.14,10.14,0,0,1-.63,3.33,6.71,6.71,0,0,1-3.84,3.84,10.18,10.18,0,0,1-3.33.63C18.55,28,18,28,14,28ZM14,.82c-4,0-4.48,0-6.08.09a9.17,9.17,0,0,0-3.07.58,5.62,5.62,0,0,0-2,1.33,5.57,5.57,0,0,0-1.33,2A9.16,9.16,0,0,0,.91,7.92C.84,9.53.82,10,.82,14s0,4.47.09,6.07a9.08,9.08,0,0,0,.58,3.07,5.56,5.56,0,0,0,1.33,2,5.56,5.56,0,0,0,2,1.33,9.09,9.09,0,0,0,3.07.58c1.58.07,2.05.09,6.08.09s4.5,0,6.08-.09a9.12,9.12,0,0,0,3.07-.58,5.87,5.87,0,0,0,3.37-3.37,9.16,9.16,0,0,0,.58-3.07c.07-1.59.09-2.07.09-6.07s0-4.49-.09-6.08a9.13,9.13,0,0,0-.58-3.07,5.88,5.88,0,0,0-3.36-3.37A9.23,9.23,0,0,0,20.08.91C18.48.84,18,.82,14,.82Z"/><path class="cls-1" d="M18.32,8.45H16.75c-1.23,0-1.47.58-1.47,1.44v1.89h2.93l-.38,3H15.29v7.59H12.23V14.73H9.68v-3h2.55V9.59A3.56,3.56,0,0,1,16,5.68a21.13,21.13,0,0,1,2.28.12Z"/></g></g></svg>