<svg xmlns="http://www.w3.org/2000/svg" xmlns:xlink="http://www.w3.org/1999/xlink" viewBox="0 0 165.53 30.4"><defs><style>.cls-1{fill:#eee;}.cls-2{clip-path:url(#clip-path);}.cls-3{fill:#c3312f;}</style><clipPath id="clip-path"><path class="cls-1" d="M5.53,5.71V24.64h9.93V23.21H7V15.32h7.83V13.89H7V7.15h8.47V5.71Zm25.65,0V22.59L24,5.71h-2V24.64h1.46V8l7.06,16.67h2V5.71Zm8.88,0V24.64H50V23.21H41.52V15.32h7.83V13.89H41.52V7.15H50V5.71Zm18,1.43h4a3.23,3.23,0,0,1,3.56,3.48v.82a3.21,3.21,0,0,1-3.5,3.5h-4ZM56.6,5.71V24.64h1.46V16.38h3.74l3.85,8.25h1.67l-4-8.36A4.68,4.68,0,0,0,67,11.47v-.93a4.63,4.63,0,0,0-5-4.83ZM91.32,24.64h1.46V5.71H91.32ZM100.2,5.71V24.64h9.93V23.21h-8.47V15.32h7.83V13.89h-7.83V7.15h8.47V5.71ZM73.74,10.39v9.55a5.22,5.22,0,0,0,10.43,0V14.5h-5.5v1.43h4v4c0,3-2.52,3.48-3.74,3.48S75.2,23,75.2,19.94v-9.5C75.2,7.41,77.74,7,79,7s3.74.43,3.74,3.42h1.46A4.85,4.85,0,0,0,79,5.53a4.9,4.9,0,0,0-5.23,4.86"/></clipPath></defs><title>logo</title><g id="圖層_2" data-name="圖層 2"><g id="圖層_1-2" data-name="圖層 1"><path class="cls-1" d="M5.53,5.71V24.64h9.93V23.21H7V15.32h7.83V13.89H7V7.15h8.47V5.71Zm25.65,0V22.59L24,5.71h-2V24.64h1.46V8l7.06,16.67h2V5.71Zm8.88,0V24.64H50V23.21H41.52V15.32h7.83V13.89H41.52V7.15H50V5.71Zm18,1.43h4a3.23,3.23,0,0,1,3.56,3.48v.82a3.21,3.21,0,0,1-3.5,3.5h-4ZM56.6,5.71V24.64h1.46V16.38h3.74l3.85,8.25h1.67l-4-8.36A4.68,4.68,0,0,0,67,11.47v-.93a4.63,4.63,0,0,0-5-4.83ZM91.32,24.64h1.46V5.71H91.32ZM100.2,5.71V24.64h9.93V23.21h-8.47V15.32h7.83V13.89h-7.83V7.15h8.47V5.71ZM73.74,10.39v9.55a5.22,5.22,0,0,0,10.43,0V14.5h-5.5v1.43h4v4c0,3-2.52,3.48-3.74,3.48S75.2,23,75.2,19.94v-9.5C75.2,7.41,77.74,7,79,7s3.74.43,3.74,3.42h1.46A4.85,4.85,0,0,0,79,5.53a4.9,4.9,0,0,0-5.23,4.86"/><g class="cls-2"><rect class="cls-1" width="115.65" height="30.4"/></g><path class="cls-3" d="M127.47,5.71l-4.11,10-4.14-10h-2.55V24.64h2V9.53l3.79,9.29h1.73L128,9.53v15.1h2V5.71Zm8.37,18.92h2l4.6-13.32,4.6,13.32h2L142.49,5.71ZM163.22,5.71l-3.77,7.43-3.69-7.43h-2.28l4.86,9.42-4.88,9.5h2.33l3.69-7.48,3.72,7.48h2.34l-4.94-9.53,4.88-9.39Z"/></g></g></svg>