<svg xmlns="http://www.w3.org/2000/svg" viewBox="0 0 163.38 19.7"><defs><style>.cls-1{fill:#fff;}.cls-2{fill:#bd312f;}</style></defs><title>logo2</title><g id="圖層_2" data-name="圖層 2"><g id="圖層_1-2" data-name="圖層 1"><path class="cls-1" d="M0,.17v19.3H10.11V18H1.49V10h8V8.5h-8V1.63h8.62V.17Zm26.14,0V17.38L18.86.17h-2v19.3h1.49v-17l7.19,17h2.08V.17Zm9,0v19.3H45.29V18H36.67V10h8V8.5h-8V1.63h8.62V.17ZM53.53,1.63h4a3.29,3.29,0,0,1,3.62,3.55V6a3.27,3.27,0,0,1-3.57,3.56H53.53ZM52,.17v19.3h1.49V11h3.81l3.92,8.42H63l-4.06-8.53a4.77,4.77,0,0,0,3.76-4.88V5.11A4.73,4.73,0,0,0,57.61.17Zm35.37,19.3H88.9V.17H87.41Zm9-19.3v19.3h10.11V18H97.94V10h8V8.5h-8V1.63h8.63V.17Zm-27,4.77v9.74a5.32,5.32,0,0,0,10.62,0V9.12h-5.6v1.46h4.11v4.09c0,3.07-2.57,3.53-3.81,3.53S71,17.75,71,14.68V5c0-3.07,2.6-3.52,3.84-3.52s3.81.45,3.81,3.48h1.49a5.33,5.33,0,0,0-10.62,0"/><path class="cls-2" d="M124.6.17l-4.19,10.22L116.2.17h-2.6v19.3h2.08V4.07l3.87,9.47h1.76l3.87-9.47V19.47h2.08V.17Zm8.53,19.3h2.08l4.69-13.58,4.7,13.58h2.05L139.91.17ZM161,.17l-3.84,7.58L153.43.17H151.1l5,9.6-5,9.69h2.38l3.76-7.64L161,19.47h2.38l-5-9.73,5-9.57Z"/></g></g></svg>