<?xml version="1.0" encoding="utf-8"?>
<!-- Generator: Adobe Illustrator 21.1.0, SVG Export Plug-In . SVG Version: 6.00 Build 0)  -->
<svg version="1.1" id="圖層_1" xmlns="http://www.w3.org/2000/svg" xmlns:xlink="http://www.w3.org/1999/xlink" x="0px" y="0px"
	 viewBox="0 0 160.1 30.4" style="enable-background:new 0 0 160.1 30.4;" xml:space="preserve">
<style type="text/css">
	.st0{clip-path:url(#SVGID_2_);}
	.st1{fill:#787878;}
	.st2{fill:#C3312F;}
</style>
<title>logo</title>
<g id="圖層_2">
	<g id="圖層_1-2">
		<g>
			<defs>
				<path id="SVGID_1_" d="M0.1,5.7v18.9H10v-1.4H1.6v-7.9h7.8v-1.4H1.6V7.2H10V5.7H0.1z M25.8,5.7v16.9L18.6,5.7h-2v18.9H18V8
					l7.1,16.7h2v-19H25.8z M34.6,5.7v18.9h9.9v-1.4h-8.5v-7.9h7.8v-1.4h-7.8V7.2h8.5V5.7H34.6z M52.6,7.1h4C58.4,7,60,8.2,60.2,10
					c0,0.2,0,0.4,0,0.6v0.8c0.2,1.8-1.1,3.3-2.9,3.5c-0.2,0-0.4,0-0.6,0h-4L52.6,7.1z M51.2,5.7v18.9h1.5v-8.3h3.7l3.9,8.2h1.7
					l-4-8.4c2.2-0.5,3.8-2.5,3.7-4.8v-0.9c0.1-2.6-1.9-4.7-4.4-4.8c-0.2,0-0.4,0-0.6,0H51.2z M85.9,24.6h1.5V5.7h-1.5V24.6z
					 M94.8,5.7v18.9h9.9v-1.4h-8.5v-7.9h7.8v-1.4h-7.8V7.2h8.5V5.7H94.8z M68.3,10.4v9.6c0.1,2.9,2.6,5.1,5.4,5c2.7-0.1,4.9-2.3,5-5
					v-5.4h-5.5v1.4h4v4c0,3-2.5,3.5-3.7,3.5s-3.7-0.4-3.7-3.5v-9.5c0-3,2.6-3.4,3.8-3.4s3.7,0.4,3.7,3.4h1.5c0-2.7-2.1-4.9-4.8-4.9
					c-0.1,0-0.3,0-0.4,0c-2.7-0.2-5,1.9-5.2,4.6C68.4,10.2,68.4,10.3,68.3,10.4"/>
			</defs>
			<clipPath id="SVGID_2_">
				<use xlink:href="#SVGID_1_"  style="overflow:visible;"/>
			</clipPath>
			<g class="st0">
				<rect x="-5.4" class="st1" width="115.7" height="30.4"/>
			</g>
		</g>
		<path class="st2" d="M122.1,5.7l-4.1,10l-4.1-10h-2.6v18.9h2V9.5l3.8,9.3h1.7l3.8-9.3v15.1h2V5.7H122.1z M130.4,24.6h2l4.6-13.3
			l4.6,13.3h2l-6.6-18.9L130.4,24.6z M157.8,5.7l-3.8,7.4l-3.7-7.4h-2.3l4.9,9.4l-4.9,9.5h2.3l3.7-7.5l3.7,7.5h2.3l-4.9-9.5l4.9-9.4
			L157.8,5.7z"/>
	</g>
</g>
</svg>
