<svg xmlns="http://www.w3.org/2000/svg" viewBox="0 0 28 28"><defs><style>.cls-1{fill:#eee;}</style></defs><title>mail</title><g id="圖層_2" data-name="圖層 2"><g id="圖層_1-2" data-name="圖層 1"><path class="cls-1" d="M14,28c-4,0-4.55,0-6.12-.09a10.2,10.2,0,0,1-3.33-.63,6.42,6.42,0,0,1-2.32-1.51A6.42,6.42,0,0,1,.72,23.44a10.1,10.1,0,0,1-.63-3.33C0,18.54,0,18,0,14S0,9.46.09,7.89A10.09,10.09,0,0,1,.72,4.56,6.38,6.38,0,0,1,2.23,2.23,6.41,6.41,0,0,1,4.56.72,10.19,10.19,0,0,1,7.89.09C9.48,0,10,0,14,0s4.53,0,6.11.09a10.19,10.19,0,0,1,3.33.63,6.42,6.42,0,0,1,2.32,1.51,6.42,6.42,0,0,1,1.51,2.32,10.12,10.12,0,0,1,.63,3.33C28,9.46,28,10,28,14s0,4.54-.09,6.11a10.13,10.13,0,0,1-.63,3.33,6.7,6.7,0,0,1-3.84,3.84,10.18,10.18,0,0,1-3.33.63C18.55,28,18,28,14,28ZM14,.82c-4,0-4.48,0-6.08.09a9.17,9.17,0,0,0-3.07.58,5.62,5.62,0,0,0-2,1.33,5.57,5.57,0,0,0-1.33,2A9.18,9.18,0,0,0,.91,7.92C.84,9.53.82,10,.82,14s0,4.47.09,6.07a9.1,9.1,0,0,0,.58,3.07,5.56,5.56,0,0,0,1.33,2,5.56,5.56,0,0,0,2,1.33,9.09,9.09,0,0,0,3.07.58c1.58.07,2.05.09,6.08.09s4.5,0,6.08-.09a9.12,9.12,0,0,0,3.07-.58,5.87,5.87,0,0,0,3.37-3.37,9.16,9.16,0,0,0,.58-3.07c.07-1.59.09-2.07.09-6.07s0-4.49-.09-6.08a9.13,9.13,0,0,0-.58-3.07,5.88,5.88,0,0,0-3.36-3.37A9.23,9.23,0,0,0,20.08.91C18.48.84,18,.82,14,.82Z"/><path class="cls-1" d="M21.11,8.16H6.89A1.89,1.89,0,0,0,5,10.05v9.21a1.89,1.89,0,0,0,1.89,1.89H21.11A1.89,1.89,0,0,0,23,19.26V10.05A1.89,1.89,0,0,0,21.11,8.16Zm.28,2.64-5.25,4.32a3.49,3.49,0,0,1-4.28,0L6.44,10.81a.75.75,0,1,1,.94-1.17L12.8,14a2,2,0,0,0,2.39,0l5.25-4.32a.75.75,0,0,1,1,1.16Z"/></g></g></svg>