<svg xmlns="http://www.w3.org/2000/svg" viewBox="0 0 78.67 78.67"><defs><style>.cls-1{fill:#4d4d4d;}</style></defs><title>office</title><g id="圖層_2" data-name="圖層 2"><g id="圖層_2-2" data-name="圖層 2"><path class="cls-1" d="M33.55,58.35H24.21a2.65,2.65,0,0,1-2.65-2.65V32.78a1.1,1.1,0,0,1,2.19,0V55.71a.46.46,0,0,0,.46.46h9.34a1.1,1.1,0,1,1,0,2.19Z"/><path class="cls-1" d="M43.46,55.2a1.1,1.1,0,0,1-1.1-1.1V40.9a.46.46,0,0,0-.46-.46H36.15a.46.46,0,0,0-.46.46V54.1a1.1,1.1,0,0,1-2.19,0V40.9a2.65,2.65,0,0,1,2.65-2.65h5.76a2.65,2.65,0,0,1,2.65,2.65V54.1A1.1,1.1,0,0,1,43.46,55.2Z"/><path class="cls-1" d="M53.46,58.35H44.51a1.1,1.1,0,1,1,0-2.19h8.95a.46.46,0,0,0,.46-.46V32.78a1.1,1.1,0,0,1,2.19,0V55.71A2.65,2.65,0,0,1,53.46,58.35Z"/><path class="cls-1" d="M61.17,32.93a1.09,1.09,0,0,1-.62-.19L39.5,18.32a1.37,1.37,0,0,0-1.33,0L17.11,32.74a1.1,1.1,0,1,1-1.24-1.81L36.93,16.51a3.52,3.52,0,0,1,3.8,0L61.79,30.93a1.1,1.1,0,0,1-.62,2Z"/><path class="cls-1" d="M48.05,58.35H29.61a1.1,1.1,0,1,1,0-2.19H48.05a1.1,1.1,0,1,1,0,2.19Z"/><path class="cls-1" d="M39.33,78.67A39.33,39.33,0,1,1,78.67,39.33,39.38,39.38,0,0,1,39.33,78.67ZM39.33,2A37.33,37.33,0,1,0,76.67,39.33,37.38,37.38,0,0,0,39.33,2Z"/></g></g></svg>