<svg xmlns="http://www.w3.org/2000/svg" viewBox="0 0 78.67 78.67"><defs><style>.cls-1{fill:#4d4d4d;}</style></defs><title>press</title><g id="圖層_2" data-name="圖層 2"><g id="圖層_2-2" data-name="圖層 2"><path class="cls-1" d="M53.31,61h-28a4.63,4.63,0,0,1-4.6-4.65V19.94a1,1,0,0,1,1-1h28a1,1,0,0,1,1,1V56.38a2.53,2.53,0,0,0,2.51,2.55,1,1,0,1,1,0,2.09ZM22.8,21V56.38a2.53,2.53,0,0,0,2.51,2.55H49.47a4.65,4.65,0,0,1-.76-2.55V21Z"/><rect class="cls-1" x="26.3" y="45.85" width="9.92" height="1.76"/><rect class="cls-1" x="26.3" y="42.24" width="12.73" height="1.84"/><rect class="cls-1" x="41.97" y="42.24" width="3.06" height="1.84"/><rect class="cls-1" x="39.03" y="38.71" width="6" height="1.84"/><rect class="cls-1" x="26.3" y="38.71" width="9.79" height="1.84"/><path class="cls-1" d="M53.31,61a1,1,0,1,1,0-2.09,2.59,2.59,0,0,0,2.55-2.55V23.66a1,1,0,0,1,2.09,0V56.38A4.71,4.71,0,0,1,53.31,61Z"/><path class="cls-1" d="M42.91,27v7.31H28.48V27H42.91M45,24.88H26.39V36.38H45V24.88Z"/><path class="cls-1" d="M53.31,57.27a1,1,0,0,1-1-1V21.73a1,1,0,0,1,2.09,0v34.5A1,1,0,0,1,53.31,57.27Z"/><path class="cls-1" d="M39.33,78.67A39.33,39.33,0,1,1,78.67,39.33,39.38,39.38,0,0,1,39.33,78.67ZM39.33,2A37.33,37.33,0,1,0,76.67,39.33,37.38,37.38,0,0,0,39.33,2Z"/></g></g></svg>