<svg xmlns="http://www.w3.org/2000/svg" viewBox="0 0 78.67 78.67"><defs><style>.cls-1{fill:#4d4d4d;}</style></defs><title>question</title><g id="圖層_2" data-name="圖層 2"><g id="圖層_2-2" data-name="圖層 2"><path class="cls-1" d="M47.73,63h0a1.1,1.1,0,0,1-.92-.49l-4.76-7.25H35a8.8,8.8,0,0,1-9-8.6V36.45a9,9,0,0,1,9-8.84h17.8a8.58,8.58,0,0,1,8.49,8.84V46.62a8.46,8.46,0,0,1-7.88,8.58l-4.77,7.27A1.1,1.1,0,0,1,47.73,63ZM35,29.8a6.8,6.8,0,0,0-6.77,6.65V46.62A6.61,6.61,0,0,0,35,53h7.63a1.09,1.09,0,0,1,.92.5l4.17,6.35,4.17-6.35a1.1,1.1,0,0,1,.92-.5,6.22,6.22,0,0,0,6.3-6.41V36.45a6.41,6.41,0,0,0-6.3-6.65Z"/><path class="cls-1" d="M23.57,46.63a1.1,1.1,0,0,1-.52-.13A8.59,8.59,0,0,1,18.41,39V28.81a9,9,0,0,1,9-8.84h17.8a8.32,8.32,0,0,1,7.38,4.44,1.1,1.1,0,0,1-1.92,1,6.16,6.16,0,0,0-5.45-3.3H27.37a6.8,6.8,0,0,0-6.77,6.65V39a6.4,6.4,0,0,0,3.48,5.59,1.1,1.1,0,0,1-.52,2.06Z"/><path class="cls-1" d="M40.56,38.83a1.4,1.4,0,0,1-1.3-1.89A4.44,4.44,0,0,1,43.62,34c3.66,0,4.83,2.25,4.83,3.74a3.61,3.61,0,0,1-1.63,3.28c-.83.62-1.73,1.12-1.9,2.27v.74H42.3v-.87a3.8,3.8,0,0,1,1.69-3c.76-.6,1.41-1,1.41-2.09a1.52,1.52,0,0,0-1.65-1.74,1.83,1.83,0,0,0-1.86,1.48,1.4,1.4,0,0,1-1.34,1Z"/><path class="cls-1" d="M43.53,45.23h.06a1.49,1.49,0,0,1,1.49,1.49h0a1.49,1.49,0,0,1-1.49,1.49h-.06A1.49,1.49,0,0,1,42,46.72h0A1.49,1.49,0,0,1,43.53,45.23Z"/><path class="cls-1" d="M39.33,78.67A39.33,39.33,0,1,1,78.67,39.33,39.38,39.38,0,0,1,39.33,78.67ZM39.33,2A37.33,37.33,0,1,0,76.67,39.33,37.38,37.38,0,0,0,39.33,2Z"/></g></g></svg>