<svg xmlns="http://www.w3.org/2000/svg" viewBox="0 0 78.67 78.67"><defs><style>.cls-1{fill:#c3312f;}</style></defs><title>sales</title><g id="圖層_2" data-name="圖層 2"><g id="圖層_2-2" data-name="圖層 2"><path class="cls-1" d="M58.4,60.55H21.25a1,1,0,0,1,0-2.09H58.4a1,1,0,0,1,0,2.09Z"/><path class="cls-1" d="M30.21,55.76a1,1,0,0,1-1-1v-8.4a1,1,0,1,1,2.09,0v8.4A1,1,0,0,1,30.21,55.76Z"/><path class="cls-1" d="M24.15,55.76a1,1,0,0,1-1-1V49.94a1,1,0,0,1,2.09,0v4.77A1,1,0,0,1,24.15,55.76Z"/><path class="cls-1" d="M42.32,55.76a1,1,0,0,1-1-1V39.08a1,1,0,0,1,2.09,0V54.71A1,1,0,0,1,42.32,55.76Z"/><path class="cls-1" d="M36.26,55.76a1,1,0,0,1-1-1V42.37a1,1,0,0,1,2.09,0V54.71A1,1,0,0,1,36.26,55.76Z"/><path class="cls-1" d="M48.38,55.76a1,1,0,0,1-1-1V34.51a1,1,0,1,1,2.09,0V54.71A1,1,0,0,1,48.38,55.76Z"/><path class="cls-1" d="M54.44,55.76a1,1,0,0,1-1-1V30a1,1,0,0,1,2.09,0V54.71A1,1,0,0,1,54.44,55.76Z"/><path class="cls-1" d="M21.25,40.81a1,1,0,0,1-.29-2c.23-.07,23.61-7,35.75-21.63a1,1,0,0,1,1.61,1.33c-12.56,15.13-35.79,22-36.78,22.3A1,1,0,0,1,21.25,40.81Z"/><path class="cls-1" d="M49.5,21.19a1,1,0,0,1-.29-2l8-2.34a1,1,0,0,1,.58,2l-8,2.34A1,1,0,0,1,49.5,21.19Z"/><path class="cls-1" d="M55.71,27l-.23,0a1,1,0,0,1-.8-1.24l1.8-8.17a1,1,0,0,1,2,.45l-1.8,8.17A1,1,0,0,1,55.71,27Z"/><path class="cls-1" d="M26.26,28.88a1,1,0,0,1-1-1v-10a1,1,0,1,1,2.09,0v10A1,1,0,0,1,26.26,28.88Z"/><path class="cls-1" d="M31.28,23.87h-10a1,1,0,1,1,0-2.09h10a1,1,0,1,1,0,2.09Z"/><path class="cls-1" d="M39.33,78.67A39.33,39.33,0,1,1,78.67,39.33,39.38,39.38,0,0,1,39.33,78.67ZM39.33,2A37.33,37.33,0,1,0,76.67,39.33,37.38,37.38,0,0,0,39.33,2Z"/></g></g></svg>